<svg width="112" height="111" viewBox="0 0 112 111" fill="none" xmlns="http://www.w3.org/2000/svg">
<g opacity="0.8">
<path d="M82.4816 78.9787C74.8691 76.8297 63.5225 71.4269 51.015 62.7107C41.6214 56.1646 33.3773 48.9938 27.8027 42.5196C26.5486 41.0611 25.5394 39.7609 24.7127 38.5963C29.7207 29.4564 38.6857 22.5716 49.7459 20.6214C69.0503 17.2175 87.516 30.1027 90.9089 49.3448C92.8565 60.3902 89.4138 71.1592 82.4832 78.9785L82.4816 78.9787Z" fill="white"/>
<path d="M61.6937 90.4665C42.6344 93.6304 24.4857 80.962 20.9571 62.0273C26.643 67.4344 33.2016 72.784 40.4069 77.8042C47.5211 82.7627 54.7245 87.0217 61.6939 90.4659L61.6937 90.4665Z" fill="white"/>
<path d="M3.81909 19.0879C8.60497 12.2855 22.448 13.0286 39.3807 19.7494C35.0353 21.6512 31.1521 24.2645 27.8712 27.5298C23.3496 26.5492 19.4159 27.251 18.1387 29.0661C16.2824 31.7033 18.1948 36.6211 22.8345 42.5825C22.841 42.5657 22.8468 42.5484 22.8528 42.5325C28.2864 49.5266 37.4874 57.9636 48.8104 65.8533C59.9991 73.6493 70.9844 79.3264 79.41 82.0554C79.4022 82.0615 79.3945 82.0677 79.3882 82.0749C86.7185 84.4447 92.1053 84.5782 93.9792 81.9129C95.4524 79.8202 94.5572 76.2832 91.6714 71.7737C93.6315 67.5636 94.7746 63.0395 95.0752 58.3447C107.269 71.9173 113.015 85.1893 108.298 91.8922C100.844 102.486 71.4108 94.7782 42.5588 74.6743C13.7086 54.5708 -3.63858 29.6813 3.8178 19.0881L3.81909 19.0879Z" fill="white"/>
</g>
</svg>
